<?xml version="1.0" encoding="utf-8"?>
<!-- Generator: Adobe Illustrator 23.1.0, SVG Export Plug-In . SVG Version: 6.00 Build 0)  -->
<svg version="1.1" id="Слой_1" xmlns="http://www.w3.org/2000/svg" xmlns:xlink="http://www.w3.org/1999/xlink" x="0px" y="0px"
	 viewBox="0 0 175.6 41.3" style="enable-background:new 0 0 175.6 41.3;" xml:space="preserve">
<style>
	.st0{fill:#005BFF;}
	.st1{fill:#E61D53;}
</style>
<title>free_logo_1</title>
<g>
	<path class="st0" d="M6.1,33.7C6.6,34,7,34.4,7.3,34.9c0.3,0.5,0.4,1.1,0.4,1.7c0,0.6-0.1,1.2-0.5,1.7c-0.3,0.5-0.8,0.9-1.3,1.2
		c-0.6,0.3-1.2,0.4-1.9,0.4c-1,0.1-2.1-0.4-2.7-1.2c-0.7-1-1.1-2.2-1-3.4C0.2,34.1,0.5,33,1.2,32c0.7-0.8,1.6-1.4,2.7-1.6l3.2-0.7
		l0.2,1.5l-2.9,0.6c-0.7,0.1-1.3,0.4-1.9,0.9c-0.4,0.5-0.7,1.1-0.7,1.7c0.3-0.4,0.7-0.7,1.1-0.8c0.4-0.2,0.9-0.3,1.4-0.3
		C5,33.3,5.6,33.4,6.1,33.7z M5.5,38c0.4-0.4,0.6-0.9,0.5-1.4c0-0.5-0.2-1-0.5-1.4c-0.4-0.4-0.9-0.6-1.4-0.5c-0.5,0-1.1,0.2-1.4,0.5
		c-0.4,0.4-0.6,0.9-0.5,1.4c0,0.5,0.2,1.1,0.6,1.5s0.9,0.6,1.4,0.6C4.6,38.6,5.1,38.4,5.5,38L5.5,38z"/>
	<path class="st0" d="M15.6,36.9h-5.4c0.1,0.5,0.3,0.9,0.7,1.2s0.9,0.5,1.5,0.4c0.7,0,1.4-0.2,1.9-0.7l0.9,1
		c-0.3,0.4-0.7,0.7-1.2,0.8c-0.5,0.2-1,0.3-1.6,0.3c-0.7,0-1.4-0.1-2-0.4c-0.6-0.3-1-0.7-1.3-1.2s-0.5-1.2-0.5-1.8s0.1-1.2,0.5-1.8
		c0.3-0.5,0.7-1,1.3-1.2c0.6-0.3,1.2-0.5,1.8-0.4c0.6,0,1.2,0.1,1.8,0.4c0.5,0.3,0.9,0.7,1.2,1.2c0.3,0.6,0.5,1.2,0.4,1.8
		C15.6,36.5,15.6,36.6,15.6,36.9z M10.8,34.6c-0.4,0.3-0.6,0.7-0.6,1.2h3.9c-0.1-0.5-0.3-0.9-0.6-1.2c-0.4-0.3-0.8-0.5-1.3-0.5
		C11.7,34.1,11.2,34.3,10.8,34.6z"/>
	<path class="st0" d="M18.5,39.4c-0.5-0.3-1-0.7-1.3-1.2c-0.6-1.1-0.6-2.5,0-3.6c0.3-0.5,0.8-1,1.3-1.2c0.6-0.3,1.2-0.5,1.9-0.4
		c0.6,0,1.2,0.1,1.8,0.4c0.5,0.3,0.9,0.7,1.1,1.2l-1.2,0.7c-0.2-0.3-0.4-0.5-0.7-0.7c-0.8-0.4-1.8-0.3-2.4,0.3
		c-0.8,0.9-0.8,2.2,0,3.1c0.7,0.6,1.6,0.8,2.5,0.3c0.3-0.2,0.6-0.4,0.7-0.7l1.2,0.7c-0.3,0.5-0.7,0.9-1.2,1.2s-1.1,0.4-1.8,0.4
		C19.8,39.9,19.1,39.7,18.5,39.4z"/>
	<path class="st0" d="M31.3,32.9v6.8h-1.6v-5.5h-3.4v5.5h-1.6v-6.8H31.3z"/>
	<path class="st0" d="M39.6,32.9v6.8H38v-5.5h-2.6l-0.1,1.4c0,0.8-0.1,1.5-0.2,2.3c-0.1,0.5-0.3,1-0.6,1.4s-0.7,0.6-1.2,0.5
		c-0.3,0-0.6-0.1-0.9-0.1l0.1-1.3c0.1,0,0.2,0,0.3,0c0.3,0,0.6-0.1,0.7-0.4c0.2-0.3,0.3-0.6,0.3-0.9c0-0.4,0.1-0.9,0.1-1.6l0.1-2.6
		L39.6,32.9z"/>
	<path class="st0" d="M46.6,33.6c0.6,0.6,0.9,1.4,0.8,2.2v4h-1.5V39c-0.2,0.3-0.5,0.5-0.8,0.7c-0.4,0.2-0.9,0.2-1.3,0.2
		c-0.5,0-0.9-0.1-1.3-0.3c-0.4-0.2-0.7-0.4-0.9-0.7s-0.3-0.7-0.3-1.1c0-0.6,0.2-1.1,0.7-1.5c0.6-0.4,1.4-0.6,2.2-0.6H46v-0.1
		c0-0.4-0.1-0.8-0.4-1.1c-0.4-0.3-0.8-0.4-1.3-0.4c-0.4,0-0.8,0.1-1.1,0.2c-0.3,0.1-0.7,0.3-0.9,0.5l-0.6-1.2
		c0.4-0.3,0.8-0.5,1.3-0.6s1.1-0.2,1.6-0.2C45.1,32.8,46,33.1,46.6,33.6z M45.2,38.4c0.3-0.2,0.5-0.5,0.7-0.8v-0.8h-1.6
		c-0.9,0-1.4,0.3-1.4,0.9c0,0.3,0.1,0.5,0.3,0.7c0.3,0.2,0.6,0.3,1,0.3C44.5,38.7,44.8,38.6,45.2,38.4z"/>
	<path class="st0" d="M54.8,34.3h-2.4v5.5h-1.6v-5.5h-2.4v-1.4h6.4V34.3z"/>
	<path class="st0" d="M56,32.9h1.6v2.8H61v-2.8h1.6v6.8H61V37h-3.4v2.7H56V32.9z"/>
	<path class="st0" d="M69.6,33.6c0.6,0.6,0.9,1.4,0.8,2.2v4h-1.5V39c-0.2,0.3-0.5,0.5-0.8,0.7c-0.4,0.2-0.9,0.2-1.3,0.2
		c-0.5,0-0.9-0.1-1.3-0.3s-0.7-0.4-0.9-0.7c-0.2-0.3-0.3-0.7-0.3-1.1c0-0.6,0.2-1.1,0.7-1.5c0.6-0.4,1.4-0.6,2.2-0.6H69v-0.1
		c0-0.4-0.1-0.8-0.4-1.1c-0.4-0.3-0.8-0.4-1.3-0.4c-0.4,0-0.8,0.1-1.1,0.2c-0.3,0.1-0.7,0.3-0.9,0.5l-0.6-1.2
		c0.4-0.3,0.8-0.5,1.3-0.6s1.1-0.2,1.6-0.2C68.1,32.8,68.9,33.1,69.6,33.6z M68.1,38.4c0.3-0.2,0.5-0.5,0.7-0.8v-0.8h-1.6
		c-0.9,0-1.4,0.3-1.4,0.9c0,0.3,0.1,0.5,0.3,0.7c0.3,0.2,0.6,0.3,1,0.3C67.4,38.7,67.8,38.6,68.1,38.4z"/>
	<path class="st0" d="M78.1,32.9v6.8h-1.4v-2.1h-1.8l-1.4,2.1h-1.7l1.6-2.3c-0.4-0.1-0.8-0.4-1.1-0.8c-0.7-1-0.5-2.3,0.4-3.1
		c0.7-0.5,1.5-0.7,2.3-0.6L78.1,32.9z M73.5,35.4c0,0.8,0.5,1.1,1.5,1.1h1.7v-2.3h-1.6C74,34.3,73.5,34.7,73.5,35.4z"/>
	<path class="st0" d="M89.2,34.3h-2.4v5.5h-1.6v-5.5h-2.4v-1.4h6.4V34.3z"/>
	<path class="st0" d="M96.4,36.9H91c0.1,0.5,0.3,0.9,0.7,1.2c0.4,0.3,0.9,0.5,1.5,0.4c0.7,0,1.4-0.2,1.9-0.7l0.9,1
		c-0.3,0.4-0.7,0.7-1.2,0.8c-1.2,0.4-2.4,0.4-3.6-0.2c-0.6-0.3-1-0.7-1.3-1.2s-0.5-1.2-0.5-1.8s0.1-1.2,0.5-1.8
		c0.3-0.5,0.7-1,1.3-1.2c0.6-0.3,1.2-0.5,1.8-0.4c0.6,0,1.2,0.1,1.8,0.4c0.5,0.3,0.9,0.7,1.2,1.2c0.3,0.6,0.5,1.2,0.4,1.8
		C96.4,36.5,96.4,36.6,96.4,36.9z M91.7,34.6c-0.4,0.3-0.6,0.7-0.6,1.2H95c-0.1-1-0.9-1.7-1.9-1.7C92.5,34.1,92.1,34.3,91.7,34.6z"
		/>
	<path class="st0" d="M104.9,39.8v-4.5l-2.3,3.8h-0.7l-2.3-3.8v4.5h-1.5V33h1.7l2.4,4.3l2.5-4.3h1.5v6.8H104.9z"/>
	<path class="st0" d="M113.3,33.6c0.6,0.6,0.9,1.4,0.8,2.2v4h-1.5V39c-0.2,0.3-0.5,0.5-0.8,0.7c-0.4,0.2-0.9,0.2-1.3,0.2
		c-0.5,0-0.9-0.1-1.3-0.3s-0.7-0.4-0.9-0.7c-0.2-0.3-0.3-0.7-0.3-1.1c0-0.6,0.2-1.1,0.7-1.5c0.6-0.4,1.4-0.6,2.2-0.6h1.8v-0.1
		c0-0.4-0.1-0.8-0.4-1.1c-0.4-0.3-0.8-0.4-1.3-0.4c-0.4,0-0.8,0.1-1.1,0.2c-0.3,0.1-0.7,0.3-0.9,0.5l-0.6-1.2
		c0.4-0.3,0.8-0.5,1.3-0.6s1.1-0.2,1.6-0.2C111.8,32.8,112.7,33.1,113.3,33.6z M111.9,38.4c0.3-0.2,0.5-0.5,0.7-0.8v-0.8H111
		c-0.9,0-1.4,0.3-1.4,0.9c0,0.3,0.1,0.5,0.3,0.7c0.3,0.2,0.6,0.3,1,0.3C111.2,38.7,111.5,38.6,111.9,38.4z"/>
	<path class="st0" d="M126.9,38.4v2.9h-1.5v-1.5h-5.3v1.5h-1.5v-2.9h0.3c0.4,0,0.7-0.3,0.9-0.8c0.2-0.8,0.3-1.5,0.3-2.3l0.1-2.3h5.6
		v5.5L126.9,38.4z M121.4,37.3c-0.1,0.4-0.2,0.8-0.5,1.1h3.4v-4.1h-2.6v1.1C121.6,36,121.6,36.7,121.4,37.3z"/>
	<path class="st0" d="M128.3,32.9h1.6v4.5l3.8-4.5h1.5v6.8h-1.6v-4.5l-3.8,4.5h-1.5V32.9z"/>
	<path class="st0" d="M142.3,36.8c0.2,0.3,0.4,0.6,0.4,1s-0.1,0.8-0.4,1.1c-0.3,0.3-0.7,0.6-1.2,0.7c-0.5,0.2-1.1,0.3-1.7,0.3
		c-0.5,0-1-0.1-1.5-0.2c-0.5-0.1-0.9-0.3-1.4-0.5L137,38c0.4,0.2,0.7,0.3,1.1,0.4c0.4,0.1,0.8,0.2,1.3,0.2c0.4,0,0.9-0.1,1.3-0.2
		c0.3-0.1,0.4-0.4,0.5-0.7c0-0.3-0.1-0.5-0.4-0.6c-0.3-0.2-0.6-0.2-1-0.2h-1.5v-1.1h1.2c0.3,0,0.6-0.1,0.9-0.2
		c0.2-0.1,0.3-0.3,0.3-0.6s-0.2-0.5-0.4-0.6c-0.4-0.2-0.7-0.2-1.1-0.2c-0.7,0-1.5,0.2-2.2,0.5l-0.4-1.2c0.8-0.4,1.8-0.6,2.7-0.6
		c0.5,0,1.1,0.1,1.6,0.2c0.4,0.1,0.8,0.4,1.1,0.7c0.5,0.5,0.5,1.3,0.1,1.9c-0.2,0.3-0.5,0.5-0.8,0.6C141.7,36.3,142,36.5,142.3,36.8
		z"/>
	<path class="st0" d="M149.1,33.6c0.6,0.6,0.9,1.4,0.8,2.2v4h-1.5V39c-0.2,0.3-0.5,0.5-0.8,0.7c-0.4,0.2-0.9,0.2-1.3,0.2
		c-0.5,0-0.9-0.1-1.3-0.3c-0.4-0.2-0.7-0.4-0.9-0.7s-0.3-0.7-0.3-1.1c0-0.6,0.2-1.1,0.7-1.5c0.6-0.4,1.4-0.6,2.2-0.6h1.8v-0.1
		c0-0.4-0.1-0.8-0.4-1.1c-0.4-0.3-0.8-0.4-1.3-0.4c-0.4,0-0.8,0.1-1.1,0.2c-0.3,0.1-0.7,0.3-0.9,0.5l-0.6-1.2
		c0.4-0.3,0.8-0.5,1.3-0.6s1.1-0.2,1.6-0.2C147.6,32.8,148.5,33.1,149.1,33.6z M147.7,38.4c0.3-0.2,0.5-0.5,0.7-0.8v-0.8h-1.6
		c-0.9,0-1.4,0.3-1.4,0.9c0,0.3,0.1,0.5,0.3,0.7c0.3,0.2,0.6,0.3,1,0.3C147,38.7,147.3,38.6,147.7,38.4z"/>
	<path class="st0" d="M151.9,32.9h1.6v4.5l3.8-4.5h1.5v6.8h-1.6v-4.5l-3.8,4.5h-1.5V32.9z M153.6,31.6c-0.4-0.4-0.6-0.9-0.6-1.4h1.1
		c0,0.3,0.1,0.5,0.3,0.7s0.5,0.3,0.8,0.3s0.6-0.1,0.8-0.3c0.2-0.2,0.3-0.5,0.3-0.7h1.1c0,0.5-0.2,1-0.6,1.4c-0.5,0.3-1,0.5-1.6,0.5
		C154.6,32.2,154.1,32,153.6,31.6z"/>
	<path class="st0" d="M160.9,32.9h1.6v2.8h3.4v-2.8h1.6v6.8h-1.6V37h-3.4v2.7h-1.6V32.9z"/>
	<path class="st0" d="M174.5,33.6c0.6,0.6,0.9,1.4,0.8,2.2v4h-1.5V39c-0.2,0.3-0.5,0.5-0.8,0.7c-0.4,0.2-0.9,0.2-1.3,0.2
		c-0.5,0-0.9-0.1-1.3-0.3c-0.4-0.2-0.7-0.4-0.9-0.7s-0.3-0.7-0.3-1.1c0-0.6,0.2-1.1,0.7-1.5c0.6-0.4,1.4-0.6,2.2-0.6h1.8v-0.1
		c0-0.4-0.1-0.8-0.4-1.1c-0.4-0.3-0.8-0.4-1.3-0.4c-0.4,0-0.8,0.1-1.1,0.2c-0.3,0.1-0.7,0.3-0.9,0.5l-0.6-1.2
		c0.4-0.3,0.8-0.5,1.3-0.6s1.1-0.2,1.6-0.2C173,32.8,173.8,33.1,174.5,33.6z M173,38.4c0.3-0.2,0.5-0.5,0.7-0.8v-0.8h-1.6
		c-0.9,0-1.4,0.3-1.4,0.9c0,0.3,0.1,0.5,0.3,0.7c0.3,0.2,0.6,0.3,1,0.3C172.3,38.7,172.7,38.6,173,38.4z"/>
</g>
<g>
	<path class="st0" d="M1.1,1.7h7.8v23.1H1.1V1.7z"/>
	<path class="st0" d="M17.7,7.8h-6.8v-6h21.3v6h-6.8v17.1h-7.8L17.7,7.8L17.7,7.8z"/>
	<path class="st0" d="M41.2,1.2c0.8,0.8,1.3,1.9,1.2,3c0,0.6-0.1,1.2-0.2,1.7c-0.3,0.9-0.6,1.8-1.1,2.6l-2.3,4.9h-4.6l1.7-5.6
		c-0.7-0.3-1.2-0.8-1.6-1.4c-0.4-0.7-0.6-1.4-0.6-2.2c-0.1-1.2,0.4-2.3,1.2-3.1C36.7-0.4,39.4-0.4,41.2,1.2z"/>
	<path class="st0" d="M48.3,24.7c-1.6-0.3-3.1-0.9-4.5-1.7l2.5-5.7c1.2,0.7,2.4,1.2,3.7,1.5c1.3,0.4,2.6,0.6,3.9,0.6
		c0.8,0,1.6-0.1,2.3-0.3c0.4-0.1,0.7-0.5,0.7-0.9c0-0.5-0.3-0.8-0.9-1.1c-1-0.3-2-0.6-3-0.8c-1.5-0.3-3-0.7-4.5-1.2
		c-1.2-0.4-2.3-1.2-3.1-2.1c-0.9-1.1-1.4-2.5-1.3-4c0-1.4,0.4-2.8,1.2-4c0.9-1.3,2.2-2.2,3.6-2.8c1.9-0.7,3.9-1.1,5.9-1
		c1.6,0,3.1,0.2,4.7,0.5c1.4,0.3,2.8,0.8,4,1.5l-2.3,5.6c-2-1.1-4.2-1.7-6.4-1.7c-2,0-3,0.5-3,1.5c0,0.5,0.3,0.8,0.9,1
		c1,0.3,1.9,0.6,2.9,0.7c1.5,0.3,3,0.6,4.5,1.1c1.2,0.4,2.3,1.1,3.2,2.1c0.9,1.1,1.4,2.5,1.3,4c0,1.4-0.4,2.8-1.2,3.9
		c-0.9,1.3-2.2,2.2-3.6,2.8c-1.9,0.7-3.9,1.1-5.9,1C52,25.4,50.1,25.2,48.3,24.7z"/>
	<path class="st0" d="M84.7,7.6v4h9.6v5.9h-9.6v7.4h-7.8V1.7h18.8v5.9C95.7,7.6,84.7,7.6,84.7,7.6z"/>
	<path class="st0" d="M108.1,19H106v5.8h-7.8V1.7h11.1c1.9,0,3.8,0.3,5.6,1.1c3.1,1.3,5.1,4.3,5,7.7c0,1.5-0.4,3-1.1,4.3
		c-0.8,1.3-1.9,2.3-3.2,2.9l4.9,7.1H112L108.1,19z M111.2,8.4c-0.7-0.5-1.5-0.8-2.4-0.7H106v5.4h2.8c0.9,0.1,1.7-0.2,2.4-0.7
		c0.5-0.5,0.8-1.2,0.8-2C112,9.7,111.7,9,111.2,8.4z"/>
	<path class="st0" d="M142,19v5.9h-19.2V1.7h18.8v5.9h-11.1v2.7h9.8v5.6h-9.8v3H142V19z"/>
	<path class="st0" d="M164.2,19v5.9H145V1.7h18.8v5.9h-11.1v2.7h9.8v5.6h-9.8v3h11.5V19z"/>
	<path class="st1" d="M166.1,1.7h8.9L173.5,16h-5.9L166.1,1.7z M167.4,24c-0.8-0.7-1.2-1.7-1.2-2.8c0-1.1,0.4-2.1,1.2-2.8
		c1.8-1.5,4.4-1.5,6.3,0c0.8,0.7,1.2,1.7,1.2,2.8c0,1.1-0.4,2.1-1.2,2.8C171.9,25.6,169.2,25.6,167.4,24z"/>
</g>
</svg>
