<?xml version="1.0" encoding="utf-8"?>
<!-- Generator: Adobe Illustrator 24.0.2, SVG Export Plug-In . SVG Version: 6.00 Build 0)  -->
<svg version="1.1" id="Слой_1" xmlns="http://www.w3.org/2000/svg" xmlns:xlink="http://www.w3.org/1999/xlink" x="0px" y="0px"
	 viewBox="0 0 182 60" style="enable-background:new 0 0 182 60;" xml:space="preserve">
<style>
	.st0{fill:#FDD32B;}
	.st1{fill:#FEFEFE;}
	.st2{fill:#7F7F7F;}
	.st3{fill:#FB3F1D;}
	.st4{fill:#9B821B;}
	.st5{fill:#9E841B;}
</style>
<path class="st0" d="M27,6.3l3.7,7.5l8.3,1.2l-6,5.9l1.4,8.3L27,25.2l-7.4,3.9l1.4-8.3L15,15l8.3-1.2L27,6.3z"/>
<path class="st0" d="M59.1,6.3l3.7,7.5l8.3,1.2l-6,5.9l1.4,8.3l-7.4-3.9l-7.4,3.9l1.4-8.3l-6-5.9l8.3-1.2L59.1,6.3z"/>
<path class="st0" d="M91.2,6.3l3.7,7.5l8.3,1.2l-6,5.9l1.4,8.3l-7.4-3.9l-7.4,3.9l1.4-8.3l-6-5.9l8.3-1.2L91.2,6.3z"/>
<path class="st0" d="M123.2,6.3l3.7,7.5l8.3,1.2l-6,5.9l1.4,8.3l-7.4-3.9l-7.4,3.9l1.4-8.3l-6-5.9l8.3-1.2L123.2,6.3z"/>
<path class="st0" d="M155.3,6.3l3.7,7.5l8.3,1.2l-6,5.9l1.4,8.3l-7.4-3.9l-7.4,3.9l1.4-8.3l-6-5.9l8.3-1.2L155.3,6.3z"/>
<path class="st1" d="M136,52.5H80.8c-0.2,0-0.2,0-0.2-0.2c0-5.3,0-10.7,0-16c0-0.2,0-0.2,0.2-0.2h84.9c0.2,0,0.2,0,0.2,0.2
	c0,5.3,0,10.7,0,16c0,0.2,0,0.2-0.2,0.2H138c0,0,0-0.1-0.1-0.1c0,0,0-0.1,0-0.1v-3c0,0,0-0.1,0-0.1c0.1-0.1,0.1,0,0.2,0
	c0.1,0.1,0.2,0.3,0.3,0.4c0.3,0.3,0.7,0.5,1.2,0.6c0.4,0.1,0.9,0,1.3-0.1c0.4-0.1,0.8-0.3,1.1-0.6c0.3-0.3,0.6-0.6,0.7-1
	c0.5-1,0.6-2.1,0.5-3.3c0-0.6-0.2-1.2-0.4-1.7c-0.2-0.6-0.6-1.1-1.1-1.4c-0.5-0.3-1.1-0.5-1.7-0.4c-0.3,0-0.7,0.1-1,0.3
	c-0.3,0.2-0.6,0.4-0.8,0.7c-0.1,0.1-0.1,0.2-0.2,0.2c-0.1,0-0.1-0.2-0.1-0.3c0-0.2,0-0.3,0-0.5c0,0,0,0,0-0.1c0,0,0,0,0-0.1
	c0,0,0,0-0.1,0c0,0,0,0-0.1,0c-0.5,0-1,0-1.4,0c0,0-0.1,0-0.1,0c0,0,0,0-0.1,0c0,0.1,0,0.2,0,0.3c0,3.3,0,6.6,0,10
	C136,52.2,136.1,52.4,136,52.5z"/>
<path class="st2" d="M138,49.1v3.4h-2c0-1.4,0-2.8,0-4.1V42c0-0.1,0-0.2,0.1-0.2c0.1,0.1,0.1,0.3,0.1,0.4c0,3.3,0,6.5,0,9.8
	c0,0.5-0.1,0.5,0.5,0.5h1c0.3,0,0.3,0,0.3-0.3v-2.6c0-0.1,0-0.2,0-0.3C137.9,49.3,137.9,49.1,138,49.1z"/>
<path class="st3" d="M96,44.3c0,1.5-0.4,3-1.3,4.3c-0.8,1.3-2,2.3-3.4,2.8c-1.4,0.6-2.9,0.7-4.4,0.4c-1.5-0.3-2.9-1-3.9-2.1
	c-1.1-1.1-1.8-2.4-2.1-3.9c-0.3-1.5-0.1-3,0.4-4.4c0.6-1.4,1.6-2.6,2.8-3.4c1.3-0.8,2.8-1.3,4.3-1.3c2,0,4,0.8,5.4,2.2
	C95.2,40.3,96,42.3,96,44.3L96,44.3z"/>
<path d="M112.3,42.9c0.3,1.4,0.1,2.9-0.4,4.3l-0.1,0.3c-0.6,0.6-1.3,0.9-2.2,1c-0.4,0-0.9,0-1.3-0.2c-0.4-0.2-0.8-0.4-1.1-0.8
	c-0.3-0.4-0.5-0.8-0.5-1.3c-0.1-0.5-0.1-1.1,0-1.6c0,0,0-0.1,0-0.1l0,0c-0.8,1.3-1.6,2.6-2.4,3.9c-0.2,0.4-0.5,0.8-0.7,1.2
	c-0.2,0.3-0.2,0.3-0.5,0.2c-0.8-0.3-1.6-0.5-2.3-0.8c-0.3-0.1-0.3-0.1-0.2-0.4c0.1-0.7,0.2-1.5,0.3-2.2c0-0.3,0.1-0.6,0.1-0.9
	c0-0.1,0-0.1,0.1-0.2l0,0c-0.5,0.6-0.9,1.3-1.4,1.9c-0.3,0.4-0.7,0.9-1,1.3c-0.1,0.1-0.1,0.2-0.2,0.2c-0.6-0.9-1-1.8-1.2-2.9
	c0-0.1,0.1-0.3,0.2-0.4l2.5-3.2c0.3-0.4,0.6-0.8,0.9-1.2c0-0.1,0.1-0.1,0.2-0.1c0.1,0,0.1,0,0.2,0l2.4,0.9c0.2,0.1,0.2,0.1,0.2,0.3
	c-0.1,1-0.3,1.9-0.4,2.9c0.3-0.5,0.6-1,0.9-1.6l2.5-4.1l0.1-0.2c0-0.1,0.1-0.1,0.1-0.1c0.1,0,0.1,0,0.2,0c0.9,0.3,1.8,0.6,2.8,0.9
	c0.2,0.1,0.2,0.1,0.2,0.3c-0.3,1-0.6,2-0.7,3c-0.1,0.5-0.1,1.1-0.1,1.6c0,0.1,0.1,0.2,0.1,0.3c0,0.1,0.1,0.2,0.2,0.2
	c0.1,0,0.2,0,0.3,0c0.2-0.1,0.4-0.2,0.6-0.4c0.6-0.6,1.1-1.2,1.6-1.9C112.1,43,112.1,42.9,112.3,42.9z"/>
<path d="M118.2,41.5v6.7c0,0.6,0,1.2,0,1.7c0,0.1,0,0.2-0.2,0.2h-1.3c-0.1,0-0.2,0-0.2-0.2V38.7c0-0.1,0-0.2,0.2-0.2h2.3
	c0.1,0,0.2,0.1,0.2,0.2c0.7,2.7,1.5,5.4,2.2,8.1c0,0,0,0.1,0.1,0.1c0.2-0.6,0.3-1.1,0.5-1.7c0.6-2.2,1.2-4.4,1.8-6.5
	c0-0.1,0.1-0.2,0.2-0.2h2.3c0.1,0,0.2,0,0.2,0.2c0,3.7,0,7.5,0,11.2c0,0.1,0,0.2-0.2,0.2c-0.5,0-1,0-1.5,0c-0.2,0-0.2,0-0.2-0.2
	v-8.4l-0.4,1.4l-1.9,7c0,0.1-0.1,0.2-0.2,0.2c-0.4,0-0.9,0-1.3,0c-0.1,0-0.2,0-0.2-0.2c-0.6-2.3-1.2-4.5-1.8-6.8
	C118.5,42.6,118.4,42,118.2,41.5L118.2,41.5z"/>
<path class="st0" d="M112.3,42.9c-0.4,0.6-0.8,1.2-1.3,1.7c-0.2,0.3-0.5,0.5-0.9,0.7c-0.5,0.3-0.8,0.1-0.9-0.4
	c-0.1-0.6,0-1.2,0.1-1.8c0.2-1,0.4-1.9,0.7-2.8c0-0.1,0-0.2-0.1-0.3c-0.9-0.3-1.9-0.6-2.8-0.9c-0.2-0.1-0.2,0-0.3,0.1l-3.4,5.5
	c-0.1,0.1-0.1,0.2-0.2,0.3c0.2-1,0.3-2,0.5-3c0-0.2,0-0.3-0.2-0.4c-0.8-0.3-1.6-0.5-2.4-0.8c-0.1,0-0.2,0-0.3,0.1l-3.5,4.6l-0.1,0.2
	c-0.3-1.7-0.1-3.4,0.7-4.9c0.8-1.5,2-2.7,3.5-3.4c1.1-0.5,2.2-0.8,3.4-0.8c1.2,0,2.3,0.3,3.4,0.8c1.1,0.5,2,1.3,2.7,2.2
	S112,41.7,112.3,42.9L112.3,42.9z"/>
<path d="M138,49.1c-0.1,0.1,0,0.1,0,0.2c0,0.9,0,1.9,0,2.9c0,0.2-0.1,0.2-0.2,0.2c-0.5,0-1,0-1.5,0c-0.2,0-0.2-0.1-0.2-0.2
	c0-3.1,0-6.1,0-9.2c0-0.4,0-0.9,0-1.3h1.7c0.1,0,0.2,0.1,0.2,0.2c0,0.3,0.1,0.6,0.1,0.9c0.3-0.4,0.6-0.7,1-1
	c0.4-0.2,0.9-0.3,1.4-0.3c0.5,0,0.9,0.2,1.4,0.4c0.4,0.3,0.7,0.6,0.9,1.1c0.4,0.7,0.6,1.5,0.6,2.3c0.1,1.1,0,2.2-0.5,3.2
	c-0.2,0.5-0.6,1-1.1,1.3c-0.5,0.3-1.1,0.5-1.7,0.4c-0.4,0-0.8-0.1-1.1-0.3C138.6,49.8,138.3,49.5,138,49.1L138,49.1z"/>
<path class="st0" d="M98.4,48.6l2.6-3.3c0,0,0.1-0.1,0.1-0.1c0,0,0,0,0,0.1c0,0,0,0.1,0,0.1l-0.4,3c-0.1,0.4-0.1,0.4,0.3,0.5
	c0.8,0.3,1.5,0.5,2.3,0.8c0,0,0.1,0,0.1,0c0,0,0.1,0,0.1,0c0,0,0.1,0,0.1,0c0,0,0,0,0.1-0.1c1-1.7,2.1-3.4,3.2-5.2
	c0.1,0,0,0.1,0,0.1c-0.1,0.6-0.1,1.3,0.1,1.9c0.1,0.4,0.3,0.7,0.5,1c0.2,0.3,0.5,0.5,0.8,0.7c0.3,0.2,0.7,0.3,1,0.3
	c0.4,0,0.7,0,1.1-0.1c0.6-0.2,1.1-0.5,1.5-0.9c-0.4,1-1.1,1.9-2,2.7c-1.1,1-2.6,1.6-4.1,1.8c-1.1,0.2-2.3,0-3.4-0.3
	c-1.1-0.4-2.1-1-2.9-1.8C99,49.4,98.7,49,98.4,48.6L98.4,48.6z"/>
<path d="M158.4,47.9v1.5c0,0.1-0.1,0.1-0.2,0.2c-0.5,0.3-1.1,0.5-1.7,0.6c-0.7,0.1-1.5,0.1-2.2-0.1c-0.6-0.1-1.1-0.4-1.5-0.8
	c-0.4-0.4-0.7-0.9-0.9-1.5c-0.5-1.5-0.4-3,0.3-4.4c0.2-0.5,0.6-1,1.1-1.3c0.5-0.3,1-0.5,1.6-0.5c0.7-0.1,1.4,0,2,0.4
	c0.4,0.2,0.7,0.5,1,0.9s0.4,0.8,0.5,1.3c0.1,0.8,0.2,1.6,0.1,2.3c0,0.1-0.1,0.1-0.1,0.1h-0.9c-1.2,0-2.4,0-3.6,0
	c-0.2,0-0.2,0-0.2,0.2c0,0.2,0.1,0.4,0.1,0.6c0.1,0.4,0.3,0.7,0.6,1c0.3,0.2,0.7,0.4,1.1,0.4c1,0.1,1.9-0.2,2.8-0.7L158.4,47.9z"/>
<path d="M128.3,44c0-0.5,0-1,0-1.5c0-0.1,0.1-0.2,0.2-0.2c0.9-0.5,2-0.7,3-0.7c0.4,0,0.8,0.1,1.1,0.1c0.5,0.1,0.9,0.3,1.2,0.7
	c0.3,0.4,0.5,0.8,0.5,1.3c0,0.3,0,0.5,0,0.8c0,1.6,0,3.2,0,4.8c0,0.2,0,0.4,0,0.6c0,0.2,0,0.1-0.1,0.1h-1.7c0,0,0,0-0.1,0
	c0,0,0,0-0.1,0s0,0,0,0c0,0,0,0,0-0.1c0-0.1-0.1-0.3-0.1-0.4c0-0.1,0-0.1-0.1-0.1c-0.1,0-0.1,0-0.1,0.1c-0.4,0.4-0.9,0.6-1.4,0.7
	c-0.5,0.1-1.1,0-1.6-0.2c-0.4-0.1-0.8-0.4-1-0.7c-0.3-0.3-0.4-0.8-0.4-1.2c-0.1-0.5-0.1-1,0.1-1.5c0.2-0.5,0.6-0.9,1-1.1
	c0.3-0.2,0.7-0.3,1-0.4c0.7-0.2,1.5-0.2,2.3-0.2c0.2,0,0.3-0.1,0.2-0.3c0-0.2,0-0.3,0-0.4c0-0.1,0-0.3-0.1-0.4
	c-0.1-0.1-0.1-0.2-0.2-0.3c-0.1-0.1-0.2-0.2-0.4-0.2c-0.1,0-0.3-0.1-0.4-0.1c-1,0-2,0.2-2.8,0.7L128.3,44z"/>
<path d="M146.6,45.6l0.8-1.1l1.9-2.6c0-0.1,0.1-0.1,0.1-0.1c0.1,0,0.1,0,0.2,0c0.6,0,1.2,0,1.8,0c-0.2,0.3-0.4,0.6-0.7,0.9l-2,2.8
	c0,0-0.1,0.1-0.1,0.2s0,0.1,0.1,0.2c1,1.4,2,2.8,2.9,4.1l0.1,0.1c0,0.1-0.1,0-0.2,0h-1.9c-0.1,0-0.1,0-0.2,0s-0.1-0.1-0.1-0.1
	c-0.9-1.2-1.8-2.5-2.7-3.7c0,0,0-0.1-0.1-0.1c0,0-0.1-0.1-0.1-0.1v0.2c0,1.2,0,2.4,0,3.6c0,0.2-0.1,0.2-0.2,0.2h-1.6
	c-0.1,0-0.2,0-0.2-0.2v-7.9c0-0.1,0-0.2,0.2-0.2c0.5,0,1.1,0,1.6,0c0.2,0,0.2,0,0.2,0.2c0,1.1,0,2.3,0,3.4L146.6,45.6z"/>
<path d="M161.3,46.7c0-1.1,0-2.1,0-3.2c0-0.2-0.1-0.2-0.2-0.2h-1.9c-0.1,0-0.2,0-0.2-0.2c0-0.4,0-0.9,0-1.2c0-0.1,0-0.2,0.2-0.2h6.3
	c0.1,0,0.2,0,0.2,0.2c0,0.4,0,0.8,0,1.2c0,0.1,0,0.2-0.2,0.2h-2c-0.2,0-0.2,0-0.2,0.2c0,2.1,0,4.2,0,6.4c0,0.2-0.1,0.2-0.2,0.2
	c-0.5,0-1.1,0-1.6,0c-0.1,0-0.2,0-0.2-0.2C161.3,48.8,161.3,47.7,161.3,46.7z"/>
<path class="st1" d="M85,48.9l1.3-1.9l0.7-1c0.1-0.1,0.1-0.2,0-0.3c-0.6-0.4-1-0.9-1.4-1.4c-0.3-0.6-0.4-1.2-0.4-1.8
	c0.1-0.6,0.3-1.2,0.7-1.7c0.5-0.5,1.2-0.8,1.9-0.9c0.7-0.1,1.4-0.1,2.2-0.1h0.9c0.2,0,0.2,0,0.2,0.2v8.7c0,0.2,0,0.3-0.2,0.3
	c-0.4,0-0.7,0-1.1,0c-0.2,0-0.2,0-0.2-0.2c0-2,0-3.9,0-5.9c0-0.6,0-1.1,0-1.7c0-0.1,0-0.2-0.2-0.2c-0.5,0-1,0-1.5,0.1
	c-0.3,0.1-0.6,0.3-0.8,0.5c-0.2,0.3-0.3,0.6-0.3,0.9c0,0.4,0,0.8,0.2,1.2c0.2,0.4,0.4,0.7,0.8,0.9l1.1,0.8c0.1,0.1,0.1,0.1,0.1,0.3
	c-0.7,1-1.4,2.1-2,3.2c-0.1,0.1-0.1,0.1-0.2,0.1L85,48.9z"/>
<path class="st4" d="M106.7,44.5v-0.1c0,0,0-0.1,0.1-0.1s0,0,0,0.1C106.7,44.4,106.7,44.4,106.7,44.5L106.7,44.5z"/>
<path class="st5" d="M101,45.3v-0.1c0,0,0-0.1,0,0C101,45.2,101.1,45.2,101,45.3C101.1,45.3,101,45.3,101,45.3L101,45.3z"/>
<path class="st1" d="M138,45.9c0-0.6,0-1.2,0.2-1.7c0.1-0.2,0.1-0.4,0.3-0.5c0.1-0.2,0.3-0.3,0.5-0.4c0.2-0.1,0.4-0.2,0.6-0.2
	c0.2,0,0.4,0,0.6,0.1c0.2,0.1,0.4,0.2,0.6,0.4c0.2,0.2,0.3,0.4,0.3,0.6c0.2,0.8,0.3,1.6,0.2,2.4c0,0.4-0.1,0.9-0.3,1.3
	c-0.1,0.3-0.3,0.5-0.6,0.7c-0.3,0.2-0.6,0.2-0.9,0.2c-0.3,0-0.5-0.1-0.8-0.3c-0.2-0.2-0.4-0.4-0.5-0.7C138,47.1,137.9,46.5,138,45.9
	L138,45.9z"/>
<path class="st1" d="M155.1,45.1h-1.2c-0.1,0-0.1,0-0.1-0.1c0-0.6,0.2-1.1,0.5-1.6c0.2-0.2,0.4-0.3,0.6-0.4c0.2-0.1,0.5-0.1,0.7,0
	c0.2,0.1,0.4,0.2,0.6,0.3c0.2,0.2,0.3,0.4,0.3,0.6c0.1,0.3,0.1,0.6,0.1,0.9c0,0.1,0,0.2-0.2,0.2L155.1,45.1z"/>
<path class="st1" d="M132.4,47.1c0,0.3,0,0.5,0,0.7c0,0.1,0,0.1,0,0.2c0,0.1-0.1,0.1-0.1,0.2c-0.2,0.2-0.5,0.4-0.9,0.5
	c-0.3,0.1-0.7,0-1-0.1c-0.2-0.1-0.4-0.3-0.6-0.5c-0.1-0.2-0.2-0.5-0.1-0.8c0-0.2,0.1-0.5,0.3-0.7c0.2-0.2,0.4-0.3,0.6-0.4
	c0.6-0.1,1.1-0.2,1.7-0.2c0.1,0,0.1,0.1,0.1,0.1L132.4,47.1z"/>
<path class="st3" d="M67.1,35.5l0.9,1.9l2.1,0.3l-1.5,1.5l0.4,2.1l-1.9-1l-1.9,1l0.4-2.1l-1.5-1.5l2.1-0.3L67.1,35.5z"/>
<path d="M19.1,34c0.6,0,1.2,0.1,1.6,0.3c0.5,0.2,0.8,0.5,1.1,0.9c0.2,0.4,0.4,0.8,0.4,1.4c0,0.5-0.1,1-0.4,1.4
	c-0.2,0.4-0.6,0.7-1.1,0.9c-0.5,0.2-1,0.3-1.6,0.3h-1.6v2.1h-1.3V34H19.1z M19.1,38.1c0.6,0,1-0.1,1.3-0.4c0.3-0.2,0.5-0.6,0.5-1.1
	c0-0.5-0.2-0.8-0.5-1.1c-0.3-0.2-0.7-0.4-1.3-0.4h-1.6v2.9H19.1z"/>
<path d="M28.5,38.5c0,0.1,0,0.2,0,0.4h-4.3c0.1,0.4,0.3,0.7,0.6,1c0.3,0.2,0.7,0.4,1.2,0.4c0.6,0,1.1-0.2,1.5-0.6l0.7,0.8
	c-0.2,0.3-0.6,0.5-0.9,0.7c-0.4,0.2-0.8,0.2-1.3,0.2c-0.6,0-1.1-0.1-1.6-0.4c-0.5-0.2-0.8-0.6-1.1-1c-0.2-0.4-0.4-0.9-0.4-1.5
	c0-0.5,0.1-1,0.4-1.4c0.2-0.4,0.6-0.8,1-1c0.4-0.2,0.9-0.4,1.5-0.4c0.5,0,1,0.1,1.4,0.4c0.4,0.2,0.8,0.6,1,1
	C28.4,37.5,28.5,38,28.5,38.5z M25.7,36.7c-0.4,0-0.8,0.1-1.1,0.4c-0.3,0.2-0.5,0.6-0.5,1h3.1c-0.1-0.4-0.2-0.7-0.5-1
	C26.5,36.9,26.1,36.7,25.7,36.7z"/>
<path d="M29.9,35.8h1.3v3.6l3.1-3.6h1.2v5.5h-1.3v-3.6l-3,3.6h-1.2V35.8z M32.6,35.1c-0.6,0-1-0.1-1.3-0.4c-0.3-0.3-0.4-0.6-0.4-1.1
	h0.9c0,0.2,0.1,0.4,0.2,0.6c0.2,0.1,0.4,0.2,0.6,0.2c0.3,0,0.5-0.1,0.6-0.2c0.2-0.1,0.2-0.3,0.2-0.6h0.9c0,0.5-0.2,0.9-0.5,1.1
	C33.6,35,33.1,35.1,32.6,35.1z"/>
<path d="M41.5,36.9h-1.9v4.4h-1.3v-4.4h-1.9v-1.1h5.2V36.9z"/>
<path d="M42.5,35.8h1.3v3.6l3.1-3.6H48v5.5h-1.3v-3.6l-3,3.6h-1.2V35.8z"/>
<path d="M49.7,35.8H51V38h2.8v-2.2h1.3v5.5h-1.3v-2.2H51v2.2h-1.3V35.8z"/>
<path d="M61.1,36.9h-2.9v4.4h-1.3v-5.5h4.2V36.9z"/>
<path d="M18.3,49.4h-1v2.2H16v-5.5h1.3v2.2h1l1.6-2.2h1.4l-2,2.7l2.1,2.9H20L18.3,49.4z"/>
<path d="M24.7,51.7c-0.6,0-1.1-0.1-1.5-0.4c-0.4-0.2-0.8-0.6-1.1-1c-0.2-0.4-0.4-0.9-0.4-1.5c0-0.5,0.1-1,0.4-1.5
	c0.3-0.4,0.6-0.8,1.1-1c0.4-0.2,1-0.4,1.5-0.4c0.6,0,1.1,0.1,1.5,0.4c0.4,0.2,0.8,0.6,1,1c0.3,0.4,0.4,0.9,0.4,1.5
	c0,0.5-0.1,1-0.4,1.5c-0.2,0.4-0.6,0.8-1,1C25.7,51.6,25.2,51.7,24.7,51.7z M24.7,50.6c0.5,0,0.9-0.2,1.2-0.5
	c0.3-0.3,0.5-0.7,0.5-1.3c0-0.5-0.2-0.9-0.5-1.3c-0.3-0.3-0.7-0.5-1.2-0.5c-0.5,0-0.9,0.2-1.2,0.5c-0.3,0.3-0.5,0.7-0.5,1.3
	c0,0.5,0.2,0.9,0.5,1.3C23.8,50.4,24.2,50.6,24.7,50.6z"/>
<path d="M34.3,51.6V48L32.5,51h-0.6L30.1,48v3.7h-1.2v-5.5h1.4l2,3.5l2.1-3.5h1.2l0,5.5H34.3z"/>
<path d="M42.5,46.1v5.5h-1.3v-4.4h-2.7v4.4h-1.3v-5.5H42.5z"/>
<path d="M46.3,46c0.8,0,1.4,0.2,1.9,0.6c0.4,0.4,0.7,1,0.7,1.8v3.2h-1.2V51c-0.2,0.2-0.4,0.4-0.7,0.6c-0.3,0.1-0.6,0.2-1.1,0.2
	c-0.4,0-0.8-0.1-1.1-0.2c-0.3-0.1-0.6-0.3-0.7-0.6c-0.2-0.3-0.2-0.5-0.2-0.9c0-0.5,0.2-0.9,0.5-1.2c0.4-0.3,1-0.5,1.7-0.5h1.4v-0.1
	c0-0.4-0.1-0.7-0.4-0.9c-0.2-0.2-0.6-0.3-1-0.3c-0.3,0-0.6,0-0.9,0.1c-0.3,0.1-0.5,0.2-0.8,0.4L44,46.7c0.3-0.2,0.6-0.4,1-0.5
	C45.4,46.1,45.9,46,46.3,46z M46.2,50.8c0.3,0,0.6-0.1,0.9-0.2c0.3-0.2,0.4-0.4,0.5-0.6v-0.6h-1.3c-0.7,0-1.1,0.2-1.1,0.7
	c0,0.2,0.1,0.4,0.3,0.6C45.6,50.7,45.8,50.8,46.2,50.8z"/>
<path d="M50.4,46.1h1.3v2.2h2.8v-2.2h1.3v5.5h-1.3v-2.2h-2.8v2.2h-1.3V46.1z"/>
<path d="M57.6,46.1h1.3v3.6l3.1-3.6h1.2v5.5h-1.3V48l-3,3.6h-1.2V46.1z"/>
<path d="M64.8,46.1h1.3v3.6l3.1-3.6h1.2v5.5H69V48l-3,3.6h-1.2V46.1z"/>
</svg>
