<?xml version="1.0" encoding="utf-8"?>
<!-- Generator: Adobe Illustrator 24.0.0, SVG Export Plug-In . SVG Version: 6.00 Build 0)  -->
<svg version="1.1" id="Слой_1" xmlns="http://www.w3.org/2000/svg" xmlns:xlink="http://www.w3.org/1999/xlink" x="0px" y="0px"
	 viewBox="0 0 769.9 769.4" style="enable-background:new 0 0 769.9 769.4;" xml:space="preserve">
<style>
	.st0{fill:#E8E8E8;}
</style>
<path class="st0" d="M732.9,108.8H37.6C16.8,108.8,0,87,0,60.1V48.8C0,21.8,16.8,0,37.6,0h695.3c20.7,0,37.6,21.8,37.6,48.8v11.3
	C770.4,87,753.6,108.8,732.9,108.8z"/>
<path class="st0" d="M732.8,329H37.7C16.9,329,0,307.1,0,280.1V269c0-27,16.9-48.9,37.7-48.9h695.1c20.8,0,37.7,21.9,37.7,48.9v11.1
	C770.4,307.1,753.6,329,732.8,329z"/>
<path class="st0" d="M733.1,549.2H37.3C16.7,549.2,0,527.5,0,500.8v-12c0-26.8,16.7-48.4,37.3-48.4h695.8
	c20.6,0,37.3,21.7,37.3,48.4v12C770.4,527.5,753.7,549.2,733.1,549.2z"/>
<path class="st0" d="M732.6,769.4H37.8c-20.9,0-37.8-22-37.8-49.1v-10.6c0-27.1,16.9-49.1,37.8-49.1h694.7c20.9,0,37.8,22,37.8,49.1
	v10.6C770.4,747.4,753.5,769.4,732.6,769.4z"/>
</svg>
