<?xml version="1.0" encoding="utf-8"?>
<!-- Generator: Adobe Illustrator 24.0.0, SVG Export Plug-In . SVG Version: 6.00 Build 0)  -->
<svg version="1.1" id="Слой_1" xmlns="http://www.w3.org/2000/svg" xmlns:xlink="http://www.w3.org/1999/xlink" x="0px" y="0px"
	 viewBox="0 0 974.9 971.2" style="enable-background:new 0 0 974.9 971.2;" xml:space="preserve">
<style>
	.st0{fill:#E8E8E8;}
</style>
<g>
	<path class="st0" d="M377.8,428.7H51.4c-28.1,0-50.9-22.8-50.9-50.9V51.4c0-28.1,22.8-50.9,50.9-50.9h326.4
		c28.1,0,50.9,22.8,50.9,50.9v326.4C428.7,405.9,405.9,428.7,377.8,428.7z"/>
	<path class="st0" d="M377.8,429.2H51.4C23.1,429.2,0,406.1,0,377.8V51.4C0,23.1,23.1,0,51.4,0h326.4c28.3,0,51.4,23.1,51.4,51.4
		v326.4C429.2,406.1,406.1,429.2,377.8,429.2z M51.4,1C23.6,1,1,23.6,1,51.4v326.4c0,27.8,22.6,50.4,50.4,50.4h326.4
		c27.8,0,50.4-22.6,50.4-50.4V51.4c0-27.8-22.6-50.4-50.4-50.4H51.4z"/>
</g>
<g>
	<path class="st0" d="M924.9,428.7H595.8c-27.4,0-49.5-22.2-49.5-49.5V50c0-27.4,22.2-49.5,49.5-49.5h329.1
		c27.4,0,49.5,22.2,49.5,49.5v329.1C974.4,406.5,952.3,428.7,924.9,428.7z"/>
	<path class="st0" d="M924.9,429.2H595.8c-27.6,0-50-22.4-50-50V50c0-27.6,22.4-50,50-50h329.1c27.6,0,50,22.4,50,50v329.1
		C974.9,406.7,952.5,429.2,924.9,429.2z M595.8,1c-27,0-49,22-49,49v329.2c0,27,22,49,49,49h329.1c27,0,49-22,49-49.1V50
		c0-27-22-49-49-49H595.8z"/>
</g>
<g>
	<path class="st0" d="M924.7,970.7H595.9c-27.5,0-49.7-22.3-49.7-49.7V592.1c0-27.5,22.3-49.7,49.7-49.7h328.8
		c27.5,0,49.7,22.3,49.7,49.7v328.8C974.4,948.4,952.2,970.7,924.7,970.7z"/>
	<path class="st0" d="M924.7,971.2H595.9c-27.7,0-50.2-22.5-50.2-50.2V592.1c0-27.7,22.5-50.2,50.2-50.2h328.8
		c27.7,0,50.2,22.5,50.2,50.2v328.8C974.9,948.6,952.4,971.2,924.7,971.2z M595.9,542.9c-27.1,0-49.2,22.1-49.2,49.2V921
		c0,27.1,22.1,49.2,49.2,49.2h328.8c27.1,0,49.2-22.1,49.2-49.3V592.1c0-27.1-22.1-49.2-49.2-49.2H595.9z"/>
</g>
<g>
	<path class="st0" d="M379.1,970.7h-329c-27.4,0-49.6-22.2-49.6-49.6V592c0-27.4,22.2-49.6,49.6-49.6h329
		c27.4,0,49.6,22.2,49.6,49.6v329C428.7,948.4,406.5,970.7,379.1,970.7z"/>
	<path class="st0" d="M379.1,971.2h-329C22.5,971.2,0,948.7,0,921.1V592c0-27.6,22.5-50.1,50.1-50.1h329c27.6,0,50.1,22.5,50.1,50.1
		v329C429.2,948.7,406.7,971.2,379.1,971.2z M50.1,542.9C23,542.9,1,564.9,1,592v329.1c0,27.1,22,49.1,49.1,49.1h329
		c27.1,0,49.1-22.1,49.1-49.2V592c0-27.1-22-49.1-49.1-49.1H50.1z"/>
</g>
</svg>
