<?xml version="1.0" encoding="utf-8"?>
<!-- Generator: Adobe Illustrator 24.0.0, SVG Export Plug-In . SVG Version: 6.00 Build 0)  -->
<svg version="1.1" id="Слой_1" xmlns="http://www.w3.org/2000/svg" xmlns:xlink="http://www.w3.org/1999/xlink" x="0px" y="0px"
	 viewBox="0 0 350.7 358.9" style="enable-background:new 0 0 350.7 358.9;" xml:space="preserve">
<path d="M345.5,328.1l-94.8-94.8c20.8-24.7,33.3-56.6,33.3-91.3C284,63.7,220.3,0,142,0S0,63.7,0,142s63.7,142,142,142
	c30.6,0,59-9.7,82.2-26.2l95.7,95.8c7.1,7,18.5,7,25.5,0C352.5,346.5,352.5,335.1,345.5,328.1z M142,257c-63.4,0-115-51.6-115-115
	S78.6,27,142,27s115,51.6,115,115S205.4,257,142,257z"/>
</svg>
