<?xml version="1.0" encoding="utf-8"?>
<!-- Generator: Adobe Illustrator 24.0.0, SVG Export Plug-In . SVG Version: 6.00 Build 0)  -->
<svg version="1.1" id="Слой_1" xmlns="http://www.w3.org/2000/svg" xmlns:xlink="http://www.w3.org/1999/xlink" x="0px" y="0px"
	 viewBox="0 0 988.5 991.3" style="enable-background:new 0 0 988.5 991.3;" xml:space="preserve">
<style>
	.st0{fill:#E8E8E8;}
</style>
<g>
	<path class="st0" d="M168.4,218H50.2c-27.4,0-49.7-22.2-49.7-49.7V50.2c0-27.4,22.2-49.7,49.7-49.7h118.2
		c27.4,0,49.7,22.2,49.7,49.7v118.2C218,195.8,195.8,218,168.4,218z"/>
	<path class="st0" d="M168.4,218.5H50.2C22.5,218.5,0,196,0,168.3V50.2C0,22.5,22.5,0,50.2,0h118.2c27.7,0,50.2,22.5,50.2,50.2
		v118.2C218.5,196,196,218.5,168.4,218.5z M50.2,1C23.1,1,1,23.1,1,50.2v118.1c0,27.1,22.1,49.2,49.2,49.2h118.2
		c27,0,49.1-22,49.2-49.1V50.2c0-27.1-22.1-49.2-49.2-49.2H50.2z"/>
</g>
<g>
	<path class="st0" d="M168.4,606.8H50.1c-27.4,0-49.6-22.2-49.6-49.6V438.9c0-27.4,22.2-49.6,49.6-49.6h118.4
		c27.4,0,49.6,22.2,49.6,49.6v118.4C218,584.7,195.8,606.8,168.4,606.8z"/>
	<path class="st0" d="M168.4,607.3H50.1C22.5,607.3,0,584.8,0,557.2V438.9c0-27.6,22.5-50.1,50.1-50.1h118.4
		c27.6,0,50.1,22.5,50.1,50.1v118.4C218.5,584.9,196,607.3,168.4,607.3z M50.1,389.8C23,389.8,1,411.8,1,438.9v118.3
		c0,27.1,22,49.1,49.1,49.1h118.3c27,0,49.1-22,49.2-49V438.9c0-27.1-22-49.1-49.1-49.1H50.1z"/>
</g>
<g>
	<path class="st0" d="M169,990.8H49.5c-27.1,0-49-22-49-49V822.4c0-27.1,22-49,49-49H169c27.1,0,49,22,49,49v119.4
		C218,968.9,196.1,990.8,169,990.8z"/>
	<path class="st0" d="M169,991.3H49.5C22.2,991.3,0,969.1,0,941.8V822.4c0-27.3,22.2-49.5,49.5-49.5H169c27.3,0,49.5,22.2,49.5,49.5
		v119.4C218.5,969.1,196.3,991.3,169,991.3z M49.5,773.9C22.8,773.9,1,795.7,1,822.4v119.4c0,26.7,21.8,48.5,48.5,48.5H169
		c26.7,0,48.5-21.8,48.5-48.5V822.4c0-26.7-21.8-48.5-48.5-48.5H49.5z"/>
</g>
<g>
	<path class="st0" d="M938.4,218H380.2c-27.4,0-49.6-22.2-49.6-49.6V50.1c0-27.4,22.2-49.6,49.6-49.6h558.2
		c27.4,0,49.6,22.2,49.6,49.6v118.4C988,195.8,965.8,218,938.4,218z"/>
	<path class="st0" d="M938.4,218.5H380.2c-27.6,0-50.1-22.5-50.1-50.1V50.1c0-27.6,22.5-50.1,50.1-50.1h558.2
		c27.6,0,50.1,22.5,50.1,50.1v118.4C988.5,196.1,966,218.5,938.4,218.5z M380.2,1c-27.1,0-49.1,22-49.1,49.1v118.3
		c0,27.1,22,49.1,49.1,49.1h558.2c27.1,0,49.1-22,49.1-49V50.1c0-27.1-22-49.1-49.1-49.1H380.2z"/>
</g>
<g>
	<path class="st0" d="M938.5,606.8H380.1c-27.3,0-49.5-22.2-49.5-49.5V438.8c0-27.3,22.1-49.5,49.5-49.5h558.4
		c27.3,0,49.5,22.1,49.5,49.5v118.6C988,584.7,965.8,606.8,938.5,606.8z"/>
	<path class="st0" d="M938.5,607.3H380.1c-27.6,0-50-22.4-50-50V438.8c0-27.6,22.4-50,50-50h558.4c27.6,0,50,22.4,50,50v118.6
		C988.5,584.9,966.1,607.3,938.5,607.3z M380.1,389.8c-27,0-49,22-49,49v118.5c0,27,22,49,49,49h558.4c27,0,49-21.9,49-48.9V438.8
		c0-27-22-49-49-49H380.1z"/>
</g>
<g>
	<path class="st0" d="M938.4,990.8H380.1c-27.4,0-49.5-22.2-49.5-49.5V822.9c0-27.3,22.2-49.5,49.5-49.5h558.3
		c27.3,0,49.5,22.2,49.5,49.5v118.5C988,968.7,965.8,990.8,938.4,990.8z"/>
	<path class="st0" d="M938.4,991.3H380.1c-27.6,0-50-22.4-50-50V822.9c0-27.6,22.4-50,50-50h558.3c27.6,0,50,22.4,50,50v118.5
		c0,13.3-5.1,25.8-14.5,35.2C964.5,986.1,951.9,991.3,938.4,991.3z M380.1,773.9c-27,0-49,22-49,49v118.4c0,27,22,49,49,49h558.3
		c13.2,0,25.6-5.1,34.8-14.4c9.2-9.2,14.2-21.5,14.2-34.5V822.9c0-27-22-49-49-49H380.1z"/>
</g>
</svg>
